<svg id="Layer_1" data-name="Layer 1" xmlns="http://www.w3.org/2000/svg" viewBox="0 0 155.81 43.03"><defs><style>.cls-1{fill:#fff}</style></defs><title>logo</title><g id="_Group_" data-name="&amp;lt;Group&amp;gt;"><g id="_Group_2" data-name="&amp;lt;Group&amp;gt;"><g id="_Group_3" data-name="&amp;lt;Group&amp;gt;"><path id="_Path_" data-name="&amp;lt;Path&amp;gt;" class="cls-1" d="M202.47 27.86v24.29c0 1.24-.36 1.54-1.55 1.51-3.24-.06-3.24 0-3.24-3.18V27.6a.88.88 0 0 0-.93.58q-10.34 12-20.64 24.09A3.65 3.65 0 0 1 173 53.7c-6.31-.08-12.63-.06-18.95 0-1.12 0-1.5-.26-1.49-1.44q.07-15.94 0-31.89c0-1.08.31-1.38 1.38-1.38 3.84 0 3.84 0 3.84 3.82V47.3c0 1.18.26 1.61 1.53 1.58 4-.08 7.91-.06 11.86 0a2.76 2.76 0 0 0 2.37-1.07c7.73-9.06 15.57-18 23.2-27.16 1.49-1.78 3.1-1.61 4.91-1.57a1.83 1.83 0 0 1 1.25 1.05q9.68 11.87 19.37 23.71a1.83 1.83 0 0 0 1 .92 3 3 0 0 0 .15-1.63V20.8c0-1.32.21-1.89 1.72-1.83 3.15.13 3.16 0 3.16 3.26v23.15c.91-1 1.61-1.78 2.28-2.57 6.45-7.52 12.93-15 19.29-22.61 1.13-1.39 2.43-1.2 3.83-1.2a.63.63 0 0 1 .47.28c-.08 1.34.55 2.77-.49 4Q241 38.08 228.29 52.86c-1.06 1.24-4 1.17-5-.11q-9.57-11.67-19.11-23.36l-1.35-1.65z" transform="translate(-98.47 -18.93)"/><path id="_Path_2" data-name="&amp;lt;Path&amp;gt;" class="cls-1" d="M114.56 29.7l-9.31-4.45c-1.9-.9-3.78-1.85-5.72-2.66-1.53-.64-1-1.89-.93-2.9 0-1.17 1.1-.64 1.69-.65h20.32c1.21 0 2.92 1 3 1.74s-1.81 2-2.93 2h-11l-.1.3a41.21 41.21 0 0 1 4.85 2.35c3 2 5.79 1.91 8.86-.09 2.34-1.53 5.05-2.48 7.58-3.74 1-.5 1.22-.33 1.35.81a3.3 3.3 0 0 1-2.4 4c-2.18.83-4.24 2-6.62 3.13l7.13 3.4a3.45 3.45 0 0 1 1.81 4.36c-.32.92-.84.27-1.2.1-2.92-1.37-5.84-2.77-8.74-4.18-1.64-.79-1.64-.8-1.64 1 0 6.05-.07 12.11 0 18.16 0 1.7-.78 1.6-1.95 1.62s-1.92-.08-1.89-1.68c.11-5.9 0-11.8 0-17.7 0-1.71 0-1.71-1.6-.94-2.87 1.37-5.75 2.72-8.6 4.12-.83.41-1.25.36-1.14-.69a1 1 0 0 0 0-.31c-.4-2 .44-3.08 2.3-3.8 2.25-1 4.37-2.11 6.88-3.3z" transform="translate(-98.47 -18.93)"/><path id="_Path_3" data-name="&amp;lt;Path&amp;gt;" class="cls-1" d="M98.55 39.72V28.18c0-1.14 0-1.51 1.39-1 1.89.69 2.48 1.72 2.43 3.73-.15 6.05 0 12.11-.07 18.16a1.74 1.74 0 0 0 1.14 1.87c4.7 2.18 9.37 4.42 14 6.67a2.52 2.52 0 0 0 2.45 0c3.54-1.74 7.16-3.34 10.68-5.12a2.68 2.68 0 0 1 2.73.25c.89.47.3 2.49-.91 3.07-3 1.42-5.93 2.81-8.9 4.21-1 .46-2 .84-2.91 1.39a3.64 3.64 0 0 1-3.86.05c-5.52-2.72-11.09-5.32-16.67-7.92a2.24 2.24 0 0 1-1.55-2.41c.12-3.82.05-7.62.05-11.41z" transform="translate(-98.47 -18.93)"/><path id="_Path_4" data-name="&amp;lt;Path&amp;gt;" class="cls-1" d="M138.39 38.88v10.78c0 1.21-.09 1.64-1.49 1.08-1.8-.71-2.37-1.71-2.32-3.66.15-6.31.12-12.63 0-18.94 0-1.71.84-1.6 2-1.63s1.89 0 1.84 1.58c-.12 3.6-.03 7.2-.03 10.79z" transform="translate(-98.47 -18.93)"/><path id="_Path_5" data-name="&amp;lt;Path&amp;gt;" class="cls-1" d="M252.28 53.75c-1.33.34-2.09-.37-2.86-1.31q-3.43-4.14-7-8.16a1.22 1.22 0 0 1 0-1.93c2.41-2.83 2.38-2.85 4.78 0 2.08 2.46 4.14 5 6.3 7.35 1 1.14.78 2.44.6 3.62-.1.92-1.22.2-1.82.43z" transform="translate(-98.47 -18.93)"/><path id="_Path_6" data-name="&amp;lt;Path&amp;gt;" class="cls-1" d="M173.19 19c1.32-.3 2.11.38 2.89 1.31q3.44 4.14 7 8.17c.61.69.68 1.19 0 1.78a3 3 0 0 0-.31.34c-2.19 2.47-2.19 2.47-4.28 0s-4.35-5.18-6.61-7.7c-1-1.1-.7-2.36-.51-3.49.13-.86 1.24-.07 1.82-.41z" transform="translate(-98.47 -18.93)"/></g></g></g></svg>